<svg width="40" height="40" viewBox="0 0 40 40" fill="none" xmlns="http://www.w3.org/2000/svg">
<g filter="url(#filter0_d_2_335)">
<path fill-rule="evenodd" clip-rule="evenodd" d="M12.3463 11.3334C10.1386 11.3334 8.33301 13.139 8.33301 15.3467V19.4477C9.05655 19.1594 9.84415 19 10.6663 19C14.1653 19 16.9997 21.8344 16.9997 25.3334C16.9997 26.4102 16.7261 27.4383 16.2355 28.3334H27.653C29.8607 28.3334 31.6663 26.5277 31.6663 24.32V23.7334H30.133C28.2536 23.7334 26.4294 22.3591 26.257 20.329C26.1493 19.1794 26.587 18.1054 27.3454 17.36C28.0276 16.6642 28.9628 16.2667 29.973 16.2667H31.6663V15.3467C31.6663 13.139 29.8607 11.3334 27.653 11.3334H12.3463ZM6.33301 15.3467C6.33301 12.0344 9.03404 9.33337 12.3463 9.33337H27.653C30.9653 9.33337 33.6663 12.0344 33.6663 15.3467V17.2667C33.6663 17.819 33.2186 18.2667 32.6663 18.2667H29.973C29.4943 18.2667 29.0732 18.4523 28.7695 18.7643L28.7515 18.7823C28.3968 19.1286 28.1986 19.6216 28.2485 20.1452L28.2496 20.157L28.2496 20.157C28.3201 21.0036 29.1342 21.7334 30.133 21.7334H32.6663C33.2186 21.7334 33.6663 22.1811 33.6663 22.7334V24.32C33.6663 27.6323 30.9653 30.3334 27.653 30.3334H14.173C13.7526 30.3334 13.377 30.0704 13.2333 29.6753C13.0895 29.2802 13.2083 28.8374 13.5304 28.5672C13.8543 28.2955 14.1399 27.9579 14.3626 27.5762L14.3752 27.5551C14.7723 26.9111 14.9997 26.1459 14.9997 25.3334C14.9997 22.939 13.0607 21 10.6663 21C9.65096 21 8.70843 21.3558 7.95632 21.9554C7.65598 22.1948 7.24505 22.241 6.89902 22.0743C6.55299 21.9076 6.33301 21.5575 6.33301 21.1734V15.3467Z" fill="#A4A4A4"/>
<path fill-rule="evenodd" clip-rule="evenodd" d="M22.7997 5.26675C22.7997 4.19006 21.7236 3.45088 20.7274 3.82847L10.1402 7.82867C9.05121 8.24094 8.33301 9.28069 8.33301 10.4534V16.5467C8.33301 17.099 7.88529 17.5467 7.33301 17.5467C6.78072 17.5467 6.33301 17.099 6.33301 16.5467V10.4534C6.33301 8.45302 7.56172 6.66594 9.43244 5.9581L20.0186 1.9583C22.3291 1.08255 24.7997 2.79678 24.7997 5.26675V10.3334C24.7997 10.8857 24.352 11.3334 23.7997 11.3334C23.2474 11.3334 22.7997 10.8857 22.7997 10.3334V5.26675Z" fill="#A4A4A4"/>
<path fill-rule="evenodd" clip-rule="evenodd" d="M29.9715 18.267C29.4927 18.267 29.0717 18.4526 28.7679 18.7646L28.75 18.7825C28.3953 19.1288 28.1971 19.6218 28.247 20.1455L28.2481 20.1572L28.248 20.1572C28.3186 21.0039 29.1327 21.7336 30.1315 21.7336H32.7218C32.9373 21.7197 33.0781 21.5512 33.0781 21.3737V18.6269C33.0781 18.4494 32.9373 18.2809 32.7218 18.267H29.9715ZM27.3439 17.3602C28.026 16.6645 28.9613 16.267 29.9715 16.267H32.7448C32.7567 16.267 32.7686 16.2672 32.7805 16.2676C34.0511 16.313 35.0781 17.3412 35.0781 18.6269V21.3737C35.0781 22.6594 34.0511 23.6876 32.7805 23.733C32.7686 23.7334 32.7567 23.7336 32.7448 23.7336H30.1315C28.2521 23.7336 26.4279 22.3593 26.2554 20.3292C26.1478 19.1796 26.5855 18.1057 27.3439 17.3602Z" fill="#A4A4A4"/>
<path fill-rule="evenodd" clip-rule="evenodd" d="M12.333 16C12.333 15.4477 12.7807 15 13.333 15H22.6663C23.2186 15 23.6663 15.4477 23.6663 16C23.6663 16.5523 23.2186 17 22.6663 17H13.333C12.7807 17 12.333 16.5523 12.333 16Z" fill="#A4A4A4"/>
<path fill-rule="evenodd" clip-rule="evenodd" d="M10.6663 21C9.65096 21 8.70843 21.3558 7.95632 21.9553L7.95458 21.9567L7.95458 21.9567C6.96101 22.7451 6.33301 23.9661 6.33301 25.3333C6.33301 26.1458 6.56037 26.9111 6.95751 27.5551L6.9659 27.5687L6.96579 27.5688C7.71221 28.8236 9.08517 29.6667 10.6663 29.6667C11.7633 29.6667 12.7523 29.2666 13.504 28.59C13.5127 28.5823 13.5215 28.5746 13.5304 28.5671C13.8543 28.2955 14.1399 27.9579 14.3626 27.5761L14.3752 27.5551C14.7723 26.9111 14.9997 26.1458 14.9997 25.3333C14.9997 22.939 13.0607 21 10.6663 21ZM6.71056 20.3907C7.79832 19.5239 9.17545 19 10.6663 19C14.1653 19 16.9997 21.8344 16.9997 25.3333C16.9997 26.5165 16.6694 27.6407 16.0839 28.5945C15.7505 29.1633 15.323 29.6713 14.8291 30.0882C13.7157 31.0846 12.2566 31.6667 10.6663 31.6667C8.35705 31.6667 6.34549 30.4328 5.25098 28.5981C4.66408 27.6436 4.33301 26.518 4.33301 25.3333C4.33301 23.341 5.25131 21.549 6.71056 20.3907Z" fill="#A4A4A4"/>
<path fill-rule="evenodd" clip-rule="evenodd" d="M13.482 23.347C13.857 23.7525 13.8323 24.3852 13.4269 24.7602L10.5869 27.3868C10.1925 27.7515 9.58056 27.7395 9.20077 27.3597L7.88078 26.0398C7.49026 25.6492 7.49026 25.0161 7.88078 24.6255C8.27131 24.235 8.90447 24.235 9.295 24.6255L9.93494 25.2655L12.0689 23.2919C12.4744 22.9169 13.107 22.9416 13.482 23.347Z" fill="#A4A4A4"/>
</g>
<defs>
<filter id="filter0_d_2_335" x="0" y="0" width="40" height="40" filterUnits="userSpaceOnUse" color-interpolation-filters="sRGB">
<feFlood flood-opacity="0" result="BackgroundImageFix"/>
<feColorMatrix in="SourceAlpha" type="matrix" values="0 0 0 0 0 0 0 0 0 0 0 0 0 0 0 0 0 0 127 0" result="hardAlpha"/>
<feOffset dy="4"/>
<feGaussianBlur stdDeviation="2"/>
<feComposite in2="hardAlpha" operator="out"/>
<feColorMatrix type="matrix" values="0 0 0 0 0 0 0 0 0 0 0 0 0 0 0 0 0 0 0.25 0"/>
<feBlend mode="normal" in2="BackgroundImageFix" result="effect1_dropShadow_2_335"/>
<feBlend mode="normal" in="SourceGraphic" in2="effect1_dropShadow_2_335" result="shape"/>
</filter>
</defs>
</svg>
